<svg width="800" height="500" viewBox="0 0 800 500" xmlns="http://www.w3.org/2000/svg">
  <defs>
    <linearGradient id="grad-ecommerce" x1="0%" y1="0%" x2="100%" y2="100%">
      <stop offset="0%" stop-color="#05a8f5" />
      <stop offset="50%" stop-color="#1c64f2" />
      <stop offset="100%" stop-color="#9333ea" />
    </linearGradient>
    <linearGradient id="panel-ecommerce" x1="0%" y1="0%" x2="0%" y2="100%">
      <stop offset="0%" stop-color="#0f172a" stop-opacity="0.85" />
      <stop offset="100%" stop-color="#020617" stop-opacity="0.95" />
    </linearGradient>
  </defs>
  <rect width="800" height="500" fill="#020617" />
  <rect x="40" y="40" width="720" height="420" rx="36" fill="url(#panel-ecommerce)" stroke="rgba(148,163,184,0.3)" stroke-width="2" />
  <circle cx="120" cy="110" r="18" fill="rgba(14,165,233,0.25)" />
  <circle cx="160" cy="90" r="10" fill="rgba(244,114,182,0.4)" />
  <rect x="120" y="180" width="560" height="220" rx="24" fill="url(#grad-ecommerce)" opacity="0.75" />
  <rect x="120" y="180" width="560" height="70" rx="24" fill="#0f172a" opacity="0.7" />
  <rect x="140" y="200" width="160" height="16" rx="8" fill="#22d3ee" opacity="0.8" />
  <rect x="140" y="230" width="360" height="12" rx="6" fill="#bae6fd" opacity="0.7" />
  <rect x="140" y="300" width="520" height="60" rx="14" fill="#0f172a" opacity="0.85" />
  <rect x="160" y="320" width="200" height="18" rx="9" fill="#22d3ee" opacity="0.8" />
  <rect x="380" y="320" width="120" height="18" rx="9" fill="#38bdf8" opacity="0.6" />
  <rect x="520" y="320" width="100" height="18" rx="9" fill="#a855f7" opacity="0.6" />
  <text x="120" y="140" fill="#e2e8f0" font-size="48" font-family="Tahoma, Verdana, sans-serif" letter-spacing="2">E-Commerce Luxury</text>
  <text x="120" y="170" fill="#38bdf8" font-size="20" font-family="Tahoma, Verdana, sans-serif" opacity="0.8">Premium storefront experience</text>
</svg>
